<svg width="20" height="23" viewBox="0 0 20 23" fill="none" xmlns="http://www.w3.org/2000/svg">
<path d="M19.8046 17.1994C19.5412 17.6547 19.0591 17.9092 18.568 17.9092C18.323 17.9092 18.0751 17.8465 17.8479 17.7139L16.7277 17.0603L16.9679 17.9661C17.1193 18.538 16.7779 19.1256 16.2053 19.276C16.1132 19.3011 16.021 19.3123 15.9301 19.3123C15.4556 19.3123 15.0212 18.9956 14.8939 18.5158L14.1019 15.5282L11.4293 13.9671L11.4293 17.1145L13.5892 19.2968C14.0061 19.7181 14.0019 20.3959 13.5808 20.812C13.3713 21.021 13.099 21.1236 12.8267 21.1236C12.5502 21.1236 12.2735 21.0176 12.0641 20.8055L11.4293 20.164V21.4808C11.4293 22.2706 10.7891 22.9094 9.99931 22.9094C9.20954 22.9094 8.56934 22.2706 8.56934 21.4808L8.56933 20.1638L7.93448 20.8053C7.5183 21.2267 6.83934 21.2295 6.4179 20.8137C5.99681 20.398 5.99266 19.7199 6.40953 19.2985L8.56944 17.1162L8.53183 13.9671L5.85895 15.5265L5.06696 18.5142C4.93981 18.9941 4.50532 19.3106 4.03075 19.3106C3.9399 19.3106 3.84771 19.2995 3.75556 19.2743C3.18321 19.1237 2.84168 18.5364 2.99303 17.9645L3.23317 17.0586L2.11304 17.7122C1.92486 17.8467 1.67708 17.9092 1.43198 17.9092C0.940441 17.9092 0.461403 17.6553 0.195766 17.2003C-0.203001 16.5194 0.0267859 15.6448 0.709181 15.2471L1.86816 14.5707L0.960531 14.3248C0.388631 14.1725 0.0515636 13.5831 0.206481 13.0117C0.361398 12.4402 0.94803 12.1054 1.52216 12.2572L4.4647 13.0563L7.16571 11.4804L4.4647 9.90442L1.52216 10.7036C1.42792 10.7287 1.33354 10.7412 1.24068 10.7412C0.768782 10.7412 0.335728 10.4273 0.206704 9.95012C0.0515637 9.37761 0.388631 8.79276 0.960531 8.63651L1.86816 8.3906L0.709181 7.71236C0.0270091 7.31475 -0.202911 6.43998 0.195766 5.75915C0.592435 5.07698 1.46814 4.84661 2.15165 5.24574L3.27179 5.89934L3.0316 4.99349C2.88026 4.42249 3.22357 3.83496 3.75485 3.68451C4.37094 3.52959 4.91561 3.87425 5.10758 4.44481L5.89958 7.43244L8.53183 8.99366L8.53183 5.84621L6.41121 3.66219C5.99601 3.24074 5.99601 2.56259 6.42014 2.14694C6.8398 1.72952 7.5184 1.73532 7.93806 2.15543L8.57291 2.79697L8.53183 1.47995C8.53183 0.690186 9.17204 0.0513191 9.96181 0.0513191C10.7516 0.0513191 11.3918 0.690186 11.3918 1.47995L11.3918 2.79697L12.0266 2.15543C12.4421 1.7355 13.1209 1.72992 13.5432 2.14706C13.9643 2.56279 13.9685 3.24085 13.5516 3.6623L11.3917 5.84453L11.4293 8.99366L14.1022 7.43422L14.8942 4.4466C15.0457 3.87604 15.6335 3.53138 16.2058 3.68629C16.7782 3.83697 17.1197 4.42427 16.9684 4.99617L16.7282 5.90201L17.8483 5.24842C18.5305 4.85081 19.4069 5.081 19.8042 5.76183C20.203 6.44266 19.9732 7.31725 19.2908 7.71504L18.1318 8.39141L19.0395 8.63731C19.6114 8.79218 19.9489 9.38109 19.7935 9.95165C19.6643 10.4289 19.2314 10.7428 18.7595 10.7428C18.6667 10.7428 18.5724 10.7302 18.4781 10.7051L15.4964 9.90442L12.8356 11.4804L15.5348 13.0554L18.4791 12.2576C19.0546 12.1054 19.6394 12.4402 19.7957 13.0117C19.9508 13.5823 19.6135 14.1711 19.0417 14.326L18.134 14.5719L19.293 15.2483C19.9743 15.6457 20.202 16.5208 19.8046 17.1994Z" fill="black"/>
</svg>
