<svg width="27" height="21" viewBox="0 0 27 21" fill="none" xmlns="http://www.w3.org/2000/svg">
<path d="M0 16.3354C0 13.0783 0 9.83253 0 6.57543C0.124403 6.04389 0.497612 5.77246 1.01784 5.82901C1.50415 5.87425 1.84343 6.27007 1.85474 6.80161C1.86605 7.5028 1.85474 8.19267 1.85474 8.89385C1.85474 9.24444 1.87736 9.26706 2.21664 9.26706C2.48806 9.26706 2.75949 9.25575 3.03091 9.26706C3.24579 9.27837 3.32496 9.18789 3.32496 8.97302C3.31365 8.48671 3.32496 8.00041 3.32496 7.51411C3.32496 6.6659 3.70947 6.29269 4.55768 6.29269C4.9422 6.29269 5.32671 6.29269 5.71123 6.29269C5.9148 6.29269 5.99397 6.21353 5.99397 6.02127C5.99397 5.59151 5.99397 5.17307 5.99397 4.74331C5.99397 4.06475 6.37849 3.69154 7.04574 3.69154C8.00704 3.69154 8.97964 3.69154 9.94094 3.69154C10.3141 3.69154 10.3255 3.68023 10.3255 3.31833C10.3255 2.85464 10.3255 2.84333 9.85046 2.85464C9.42071 2.86595 9.05881 2.76417 8.83262 2.35703C8.51596 1.76894 8.86655 1.04514 9.5338 0.93205C9.62428 0.909431 9.72606 0.909431 9.82785 0.909431C11.6487 0.909431 13.4695 0.909431 15.279 0.909431C15.573 0.909431 15.8444 0.965978 16.0706 1.16955C16.3647 1.44097 16.4778 1.80287 16.3534 2.16477C16.2176 2.5606 15.9123 2.80941 15.5052 2.83202C15.3355 2.84333 15.1772 2.84333 15.0075 2.83202C14.804 2.83202 14.7361 2.9225 14.7248 3.11476C14.7022 3.65761 14.7135 3.66892 15.2563 3.66892C15.9688 3.66892 16.6813 3.66892 17.3938 3.66892C18.0385 3.66892 18.423 4.05344 18.423 4.68676C18.4343 5.61413 18.423 6.55281 18.423 7.48018C18.423 7.81946 18.4456 7.84208 18.7736 7.84208C19.1242 7.84208 19.4747 7.84208 19.814 7.84208C19.9837 7.84208 20.142 7.85339 20.3003 7.89862C20.764 8.01172 21.0581 8.33969 21.0694 8.82599C21.0807 9.17658 21.0694 9.52717 21.0694 9.86645C21.0694 10.1718 21.1146 10.1944 21.4652 10.1944C21.7705 10.1944 21.8045 10.1718 21.8045 9.87776C21.8045 9.60634 21.8045 9.33491 21.8045 9.06349C21.8045 8.89385 21.8271 8.73552 21.8723 8.57719C22.0759 7.95517 22.7545 7.70636 23.3086 8.05696C23.7044 8.30576 24.0663 8.59981 24.4396 8.89385C25.0503 9.35753 25.661 9.82122 26.2717 10.2849C26.5657 10.5111 26.7127 10.7825 26.7014 11.1557C26.7014 13.214 26.7014 15.2836 26.7014 17.342C26.7014 17.6812 26.5883 17.9527 26.3282 18.1675C25.3669 18.9818 24.4169 19.8187 23.4556 20.6217C23.1616 20.8705 22.8223 20.9723 22.4378 20.8139C22.0533 20.6556 21.861 20.3502 21.8158 19.9544C21.7819 19.683 21.8045 19.4003 21.8045 19.1175C21.7932 18.8461 21.7705 18.8235 21.5104 18.8122C21.4539 18.8122 21.4086 18.8122 21.3521 18.8122C21.1598 18.8009 21.0694 18.88 21.0694 19.0836C21.0807 19.355 21.0694 19.6264 21.0694 19.8979C21.0581 20.4746 20.6735 20.8818 20.0854 20.9044C19.848 20.9157 19.6105 20.9044 19.3843 20.9044C16.4664 20.9044 13.5599 20.9044 10.6421 20.9044C10.1445 20.9044 9.75999 20.7348 9.44333 20.3389C8.54989 19.2193 7.63383 18.111 6.74039 16.9914C6.55944 16.7539 6.35587 16.6521 6.06182 16.6634C5.50766 16.686 4.95351 16.6747 4.38804 16.6634C3.70947 16.6634 3.30234 16.2789 3.27972 15.589C3.2571 15.0914 3.27972 14.5938 3.27972 14.0962C3.27972 13.689 3.27972 13.689 2.84996 13.689C2.61247 13.689 2.37497 13.689 2.14878 13.689C1.83212 13.689 1.8095 13.7116 1.8095 14.0396C1.8095 14.7408 1.82081 15.4533 1.8095 16.1545C1.78688 16.833 1.19879 17.2402 0.554159 17.0479C0.237497 16.9461 0.0452375 16.6973 0 16.3354Z" fill="black"/>
</svg>
