<svg width="20" height="26" viewBox="0 0 20 26" fill="none" xmlns="http://www.w3.org/2000/svg">
<path d="M5.03817 12.5657C5.03817 11.5209 5.03817 10.4761 5.03817 9.43125C5.0521 7.80133 6.02726 6.71471 7.47608 6.70078C8.93883 6.68685 9.98365 7.75953 9.96972 9.36159C9.96972 9.94669 10.1787 10.0442 10.6802 10.0303C11.5439 10.0024 12.3937 10.0163 13.2574 10.0303C14.344 10.0442 14.9709 10.6711 14.9709 11.702C14.9709 12.7329 14.3301 13.3319 13.2296 13.3319C12.3519 13.3319 11.4603 13.3458 10.5827 13.3319C10.1508 13.318 9.914 13.4294 9.98365 13.9031C10.0115 14.112 10.0115 14.321 9.98365 14.53C9.92793 14.9758 10.123 15.0733 10.5409 15.0733C11.8922 15.0454 13.2296 15.0593 14.5809 15.0593C15.9879 15.0593 16.5033 15.4773 16.7123 16.8843C16.9213 18.3331 17.0884 19.7819 17.2417 21.2308C17.2835 21.6487 17.4367 21.8019 17.8407 21.7462C18.0636 21.7183 18.3004 21.7323 18.5373 21.7462C19.4288 21.8298 19.9861 22.4706 20 23.3901C20 24.3095 19.4288 24.9782 18.5512 25.02C17.6039 25.0618 16.6426 25.0618 15.6953 25.02C14.9431 24.9921 14.344 24.3652 14.2326 23.5712C14.0376 22.0945 13.8425 20.6317 13.7032 19.155C13.6475 18.5699 13.5221 18.3053 12.8395 18.3331C11.1956 18.3888 9.55179 18.361 7.89401 18.3471C5.97154 18.3331 5.03817 17.3997 5.02424 15.4773C5.03817 14.516 5.03817 13.5409 5.03817 12.5657Z" fill="#35342F"/>
<path d="M3.26894 12.4821C3.26894 13.8056 3.26894 15.129 3.26894 16.4524C3.28287 18.6117 4.74562 20.0745 6.90491 20.0884C7.94973 20.0884 8.99456 20.0745 10.0394 20.0884C10.9867 20.1023 11.5996 20.7292 11.6275 21.6626C11.6554 22.596 11.0703 23.3622 10.1648 23.3622C8.61842 23.3761 7.05815 23.5154 5.51182 23.2507C2.50274 22.7632 0.0787525 20.0327 0.0230287 16.9679C-0.0187641 14.0842 0.00909776 11.2144 0.00909776 8.3307C0.00909776 7.35554 0.677783 6.71471 1.62509 6.71471C2.64205 6.71471 3.25501 7.32768 3.25501 8.3725C3.28287 9.73773 3.26894 11.1169 3.26894 12.4821Z" fill="#35342F"/>
<path d="M5.03817 2.43791C5.07996 1.10054 6.18051 0 7.49001 0C8.84132 0 10.0254 1.21199 9.98365 2.54936C9.94186 3.90066 8.79952 5.00121 7.44822 4.97335C6.06906 4.93155 5.01031 3.81708 5.03817 2.43791Z" fill="#35342F"/>
</svg>
