<svg width="24" height="21" viewBox="0 0 24 21" fill="none" xmlns="http://www.w3.org/2000/svg">
<path d="M23.4596 0.909424C19.4028 0.909424 15.3532 0.909424 11.2964 0.909424C11.1362 0.909424 10.9687 0.916707 10.8084 0.94584C9.00218 1.27359 7.43627 2.02377 6.19811 3.41489C5.43336 4.2816 4.65404 5.13375 3.87473 5.99318C3.06628 6.88903 2.25783 7.79216 1.44938 8.68801C1.1362 9.03761 0.793882 9.37264 0.538966 9.78051C0.2185 10.2831 0.0582666 10.8366 0 11.4193C0 11.7616 0 12.1039 0 12.4462C0.0655499 12.6866 0.0728332 12.9342 0.145666 13.1745C0.721049 15.0755 1.29643 16.9764 1.87181 18.8847C2.21413 20.0209 3.35033 20.9094 4.45739 20.9094C10.2913 20.9094 16.1253 20.9094 21.9592 20.9094C22.1267 20.9094 22.2797 20.8949 22.4399 20.8439C23.3867 20.538 23.8966 19.8388 23.8966 18.841C23.8966 13.007 23.8966 7.17308 23.8966 1.33914C23.8893 0.909424 23.8893 0.909424 23.4596 0.909424ZM21.697 13.8883C21.0925 13.8883 20.488 13.8883 19.8835 13.8883C19.2789 13.8883 18.6744 13.8883 18.0699 13.8883C17.9388 13.8883 17.9024 13.8592 17.9024 13.7208C17.9097 13.16 17.9097 12.6064 17.9024 12.0456C17.9024 11.9291 17.9315 11.8854 18.0554 11.8854C19.2789 11.8927 20.5098 11.8927 21.7334 11.8854C21.8427 11.8854 21.8791 11.9218 21.8791 12.0311C21.8718 12.6064 21.8718 13.1818 21.8791 13.7572C21.8791 13.9247 21.7844 13.8883 21.697 13.8883ZM21.8791 9.70768C21.8791 9.83878 21.8791 9.91889 21.7043 9.91889C15.5426 9.91161 9.3882 9.91161 3.22651 9.91161C3.21194 9.91161 3.19738 9.90433 3.13911 9.89704C3.67808 9.29253 4.19519 8.71714 4.71231 8.14176C5.76111 6.97643 6.79534 5.78925 7.87327 4.63848C8.87108 3.57512 10.1384 2.97789 11.5878 2.96332C14.9454 2.9269 18.2957 2.94875 21.6533 2.94875C21.8281 2.94875 21.8718 2.99245 21.8718 3.16725C21.8718 5.34497 21.8718 7.52996 21.8791 9.70768Z" fill="#35342F"/>
</svg>
